<svg version="1.1" viewBox="0.0 0.0 1109.5091863517061 733.8845144356956" fill="none" stroke="none" stroke-linecap="square" stroke-miterlimit="10" xmlns:xlink="http://www.w3.org/1999/xlink" xmlns="http://www.w3.org/2000/svg"><clipPath id="p.0"><path d="m0 0l1109.5092 0l0 733.8845l-1109.5092 0l0 -733.8845z" clip-rule="nonzero"/></clipPath><g clip-path="url(#p.0)"><path fill="#000000" fill-opacity="0.0" d="m0 0l1109.5092 0l0 733.8845l-1109.5092 0z" fill-rule="evenodd"/><path fill="#ffffff" d="m6.5905514 17.480198l0 0c0 -4.3312387 3.5111637 -7.8424025 7.8424034 -7.8424025l484.78763 0c2.079956 0 4.0746765 0.82625103 5.54541 2.2969866c1.4707642 1.4707355 2.296997 3.4654818 2.296997 5.545416l0 582.29944c0 4.331238 -3.5111694 7.842407 -7.842407 7.842407l-484.78763 0l0 0c-4.3312397 0 -7.8424034 -3.5111694 -7.8424034 -7.842407z" fill-rule="evenodd"/><path fill="#ffffff" d="m581.9974 15.093354l0 0c0 -3.4826813 2.8232422 -6.305953 6.305969 -6.305953l487.86047 0c1.6724854 0 3.2764893 0.6643753 4.4589844 1.8469715c1.1826172 1.1825953 1.8470459 2.786539 1.8470459 4.4589815l0 587.0731c0 3.482666 -2.8233643 6.305908 -6.3060303 6.305908l-487.86047 0c-3.482727 0 -6.305969 -2.8232422 -6.305969 -6.305908z" fill-rule="evenodd"/><path fill="#000000" fill-opacity="0.0" d="m-31.918634 53.85302l606.3622 0l0 243.02362l-606.3622 0z" fill-rule="evenodd"/><path fill="#4ca722" d="m121.99683 124.29302l-5.3125 0l0 -45.6875l25.468742 0l0 4.71875l-20.156242 0l0 16.71875l18.937492 0l0 4.71875l-18.937492 0l0 19.53125zm32.124992 0l-5.1875 0l0 -34.25l5.1875 0l0 34.25zm-5.625 -43.53125q0 -1.78125 0.875 -2.609375q0.875 -0.828125 2.1875 -0.828125q1.25 0 2.15625 0.84375q0.90625 0.84375 0.90625 2.59375q0 1.75 -0.90625 2.609375q-0.90625 0.859375 -2.15625 0.859375q-1.3125 0 -2.1875 -0.859375q-0.875 -0.859375 -0.875 -2.609375zm24.875 26.0l-11.90625 -16.71875l5.90625 0l9.03125 13.125l9.0 -13.125l5.84375 0l-11.90625 16.71875l12.53125 17.53125l-5.875 0l-9.59375 -13.875l-9.6875 13.875l-5.875 0l12.53125 -17.53125zm39.75 18.15625q-7.59375 0 -11.984375 -4.625q-4.390625 -4.625 -4.390625 -12.84375q0 -8.28125 4.078125 -13.15625q4.078125 -4.875 10.953125 -4.875q6.4375 0 10.1875 4.234375q3.75 4.234375 3.75 11.171875l0 3.28125l-23.59375 0q0.15625 6.03125 3.046875 9.15625q2.890625 3.125 8.140625 3.125q5.53125 0 10.9375 -2.3125l0 4.625q-2.75 1.1875 -5.203125 1.703125q-2.453125 0.515625 -5.921875 0.515625zm-1.40625 -31.15625q-4.125 0 -6.578125 2.6875q-2.453125 2.6875 -2.890625 7.4375l17.90625 0q0 -4.90625 -2.1875 -7.515625q-2.1875 -2.609375 -6.25 -2.609375zm46.15625 25.9375l-0.28125 0q-3.59375 5.21875 -10.75 5.21875q-6.71875 0 -10.453125 -4.59375q-3.734375 -4.59375 -3.734375 -13.0625q0 -8.46875 3.75 -13.15625q3.75 -4.6875 10.4375 -4.6875q6.96875 0 10.6875 5.0625l0.40625 0l-0.21875 -2.46875l-0.125 -2.40625l0 -13.9375l5.1875 0l0 48.625l-4.21875 0l-0.6875 -4.59375zm-10.375 0.875q5.3125 0 7.703125 -2.890625q2.390625 -2.890625 2.390625 -9.328125l0 -1.09375q0 -7.28125 -2.421875 -10.390625q-2.421875 -3.109375 -7.734375 -3.109375q-4.5625 0 -6.984375 3.546875q-2.421875 3.546875 -2.421875 10.015625q0 6.5625 2.40625 9.90625q2.40625 3.34375 7.0625 3.34375zm72.65625 -28.65625q0 6.9375 -4.734375 10.671875q-4.734375 3.734375 -13.546875 3.734375l-5.375 0l0 17.96875l-5.3125 0l0 -45.6875l11.84375 0q17.125 0 17.125 13.3125zm-23.65625 9.84375l4.78125 0q7.0625 0 10.21875 -2.28125q3.15625 -2.28125 3.15625 -7.3125q0 -4.53125 -2.96875 -6.75q-2.96875 -2.21875 -9.25 -2.21875l-5.9375 0l0 18.5625zm48.0625 -12.34375q2.28125 0 4.09375 0.375l-0.71875 4.8125q-2.125 -0.46875 -3.75 -0.46875q-4.15625 0 -7.109375 3.375q-2.953125 3.375 -2.953125 8.40625l0 18.375l-5.1875 0l0 -34.25l4.28125 0l0.59375 6.34375l0.25 0q1.90625 -3.34375 4.59375 -5.15625q2.6875 -1.8125 5.90625 -1.8125zm15.6875 34.875l-5.1875 0l0 -34.25l5.1875 0l0 34.25zm-5.625 -43.53125q0 -1.78125 0.875 -2.609375q0.875 -0.828125 2.1875 -0.828125q1.25 0 2.15625 0.84375q0.90625 0.84375 0.90625 2.59375q0 1.75 -0.90625 2.609375q-0.90625 0.859375 -2.15625 0.859375q-1.3125 0 -2.1875 -0.859375q-0.875 -0.859375 -0.875 -2.609375zm30.3125 44.15625q-7.4375 0 -11.515625 -4.578125q-4.078125 -4.578125 -4.078125 -12.953125q0 -8.59375 4.140625 -13.28125q4.140625 -4.6875 11.796875 -4.6875q2.46875 0 4.9375 0.53125q2.46875 0.53125 3.875 1.25l-1.59375 4.40625q-1.71875 -0.6875 -3.75 -1.140625q-2.03125 -0.453125 -3.59375 -0.453125q-10.4375 0 -10.4375 13.3125q0 6.3125 2.546875 9.6875q2.546875 3.375 7.546875 3.375q4.28125 0 8.78125 -1.84375l0 4.59375q-3.4375 1.78125 -8.65625 1.78125zm31.25 0q-7.59375 0 -11.984375 -4.625q-4.390625 -4.625 -4.390625 -12.84375q0 -8.28125 4.078125 -13.15625q4.078125 -4.875 10.953125 -4.875q6.4375 0 10.1875 4.234375q3.75 4.234375 3.75 11.171875l0 3.28125l-23.59375 0q0.15625 6.03125 3.046875 9.15625q2.890625 3.125 8.140625 3.125q5.53125 0 10.9375 -2.3125l0 4.625q-2.75 1.1875 -5.203125 1.703125q-2.453125 0.515625 -5.921875 0.515625zm-1.40625 -31.15625q-4.125 0 -6.578125 2.6875q-2.453125 2.6875 -2.890625 7.4375l17.90625 0q0 -4.90625 -2.1875 -7.515625q-2.1875 -2.609375 -6.25 -2.609375z" fill-rule="nonzero"/><path fill="#000000" fill-opacity="0.0" d="m529.0525 53.85302l606.3622 0l0 243.02362l-606.3622 0z" fill-rule="evenodd"/><path fill="#4ca722" d="m773.34296 124.29302l-5.3125 0l0 -21.5l-24.0625 0l0 21.5l-5.3125 0l0 -45.6875l5.3125 0l0 19.4375l24.0625 0l0 -19.4375l5.3125 0l0 45.6875zm41.3125 -17.15625q0 8.375 -4.21875 13.078125q-4.21875 4.703125 -11.65625 4.703125q-4.59375 0 -8.15625 -2.15625q-3.5625 -2.15625 -5.5 -6.1875q-1.9375 -4.03125 -1.9375 -9.4375q0 -8.375 4.1875 -13.046875q4.1875 -4.671875 11.625 -4.671875q7.1875 0 11.421875 4.78125q4.234375 4.78125 4.234375 12.9375zm-26.09375 0q0 6.5625 2.625 10.0q2.625 3.4375 7.71875 3.4375q5.09375 0 7.734375 -3.421875q2.640625 -3.421875 2.640625 -10.015625q0 -6.53125 -2.640625 -9.921875q-2.640625 -3.390625 -7.796875 -3.390625q-5.09375 0 -7.6875 3.34375q-2.59375 3.34375 -2.59375 9.96875zm40.0625 -17.09375l0 22.21875q0 4.1875 1.90625 6.25q1.90625 2.0625 5.96875 2.0625q5.375 0 7.859375 -2.9375q2.484375 -2.9375 2.484375 -9.59375l0 -18.0l5.1875 0l0 34.25l-4.28125 0l-0.75 -4.59375l-0.28125 0q-1.59375 2.53125 -4.421875 3.875q-2.828125 1.34375 -6.453125 1.34375q-6.25 0 -9.359375 -2.96875q-3.109375 -2.96875 -3.109375 -9.5l0 -22.40625l5.25 0zm50.03125 -0.625q2.28125 0 4.09375 0.375l-0.71875 4.8125q-2.125 -0.46875 -3.75 -0.46875q-4.15625 0 -7.109375 3.375q-2.953125 3.375 -2.953125 8.40625l0 18.375l-5.1875 0l0 -34.25l4.28125 0l0.59375 6.34375l0.25 0q1.90625 -3.34375 4.59375 -5.15625q2.6875 -1.8125 5.90625 -1.8125zm15.6875 34.875l-5.1875 0l0 -48.625l5.1875 0l0 48.625zm5.5625 -34.25l5.5625 0l7.5 19.53125q2.46875 6.6875 3.0625 9.65625l0.25 0q0.40625 -1.59375 1.703125 -5.453125q1.296875 -3.859375 8.484375 -23.734375l5.5625 0l-14.71875 38.999992q-2.1875 5.78125 -5.109375 8.203125q-2.921875 2.421875 -7.171875 2.421875q-2.375 0 -4.6875 -0.53125l0 -4.15625q1.71875 0.375 3.84375 0.375q5.34375 0 7.625 -6.0l1.90625 -4.8749924l-13.8125 -34.4375z" fill-rule="nonzero"/><path fill="#000000" fill-opacity="0.0" d="m674.0289 243.64305l316.40942 0l0 80.85039l-316.40942 0z" fill-rule="evenodd"/><path fill="#6aa84f" d="m764.9427 278.1899q0 3.171875 -2.296875 4.984375q-2.296875 1.796875 -6.328125 1.796875q-4.03125 0 -6.609375 -1.25l0 -3.6875q1.625 0.765625 3.453125 1.203125q1.84375 0.4375 3.421875 0.4375q2.3125 0 3.40625 -0.875q1.09375 -0.875 1.09375 -2.359375q0 -1.328125 -1.015625 -2.25q-1.0 -0.9375 -4.15625 -2.203125q-3.25 -1.328125 -4.59375 -3.015625q-1.328125 -1.6875 -1.328125 -4.0625q0 -2.984375 2.109375 -4.6875q2.125 -1.71875 5.6875 -1.71875q3.40625 0 6.796875 1.5l-1.234375 3.171875q-3.171875 -1.328125 -5.671875 -1.328125q-1.875 0 -2.859375 0.828125q-0.96875 0.8125 -0.96875 2.171875q0 0.921875 0.390625 1.578125q0.390625 0.65625 1.28125 1.25q0.890625 0.578125 3.21875 1.546875q2.625 1.09375 3.84375 2.03125q1.21875 0.9375 1.78125 2.125q0.578125 1.1875 0.578125 2.8125zm10.9021 3.6875q1.40625 0 2.796875 -0.4375l0 2.875q-0.625 0.28125 -1.640625 0.46875q-1.0 0.1875 -2.0625 0.1875q-5.4375 0 -5.4375 -5.734375l0 -9.703125l-2.453125 0l0 -1.6875l2.625 -1.390625l1.3125 -3.8125l2.359375 0l0 4.0l5.125 0l0 2.890625l-5.125 0l0 9.640625q0 1.390625 0.6875 2.046875q0.6875 0.65625 1.8125 0.65625zm17.662659 2.765625l-0.765625 -2.5l-0.140625 0q-1.296875 1.640625 -2.625 2.234375q-1.3125 0.59375 -3.375 0.59375q-2.65625 0 -4.140625 -1.421875q-1.484375 -1.4375 -1.484375 -4.0625q0 -2.78125 2.0625 -4.1875q2.0625 -1.421875 6.296875 -1.5625l3.109375 -0.09375l0 -0.96875q0 -1.71875 -0.8125 -2.5625q-0.796875 -0.859375 -2.484375 -0.859375q-1.390625 0 -2.65625 0.40625q-1.265625 0.40625 -2.4375 0.953125l-1.25 -2.734375q1.46875 -0.765625 3.203125 -1.15625q1.75 -0.40625 3.296875 -0.40625q3.4375 0 5.1875 1.5q1.75 1.5 1.75 4.703125l0 12.125l-2.734375 0zm-5.703125 -2.609375q2.078125 0 3.34375 -1.15625q1.265625 -1.171875 1.265625 -3.265625l0 -1.5625l-2.3125 0.09375q-2.703125 0.109375 -3.9375 0.921875q-1.21875 0.796875 -1.21875 2.453125q0 1.203125 0.71875 1.859375q0.71875 0.65625 2.140625 0.65625zm22.895447 -15.71875q1.15625 0 1.90625 0.171875l-0.375 3.5625q-0.8125 -0.203125 -1.6875 -0.203125q-2.296875 0 -3.71875 1.5q-1.421875 1.5 -1.421875 3.890625l0 9.40625l-3.828125 0l0 -18.0l3.0 0l0.5 3.171875l0.1875 0q0.90625 -1.609375 2.34375 -2.546875q1.4375 -0.953125 3.09375 -0.953125zm11.947632 15.5625q1.40625 0 2.796875 -0.4375l0 2.875q-0.625 0.28125 -1.640625 0.46875q-1.0 0.1875 -2.0625 0.1875q-5.4375 0 -5.4375 -5.734375l0 -9.703125l-2.453125 0l0 -1.6875l2.625 -1.390625l1.3125 -3.8125l2.359375 0l0 4.0l5.125 0l0 2.890625l-5.125 0l0 9.640625q0 1.390625 0.6875 2.046875q0.6875 0.65625 1.8125 0.65625zm10.225159 2.765625l-3.828125 0l0 -18.0l3.828125 0l0 18.0zm-4.0625 -22.765625q0 -1.03125 0.5625 -1.578125q0.5625 -0.5625 1.609375 -0.5625q1.0 0 1.5625 0.5625q0.5625 0.546875 0.5625 1.578125q0 0.96875 -0.5625 1.53125q-0.5625 0.5625 -1.5625 0.5625q-1.046875 0 -1.609375 -0.5625q-0.5625 -0.5625 -0.5625 -1.53125zm25.354675 22.765625l-3.828125 0l0 -11.0625q0 -2.09375 -0.84375 -3.109375q-0.84375 -1.03125 -2.65625 -1.03125q-2.4375 0 -3.5625 1.4375q-1.109375 1.4375 -1.109375 4.796875l0 8.96875l-3.828125 0l0 -18.0l3.0 0l0.53125 2.359375l0.1875 0q0.828125 -1.28125 2.3125 -1.984375q1.5 -0.703125 3.328125 -0.703125q6.46875 0 6.46875 6.59375l0 11.734375zm20.530518 -18.0l0 2.09375l-3.078125 0.578125q0.421875 0.5625 0.6875 1.40625q0.28125 0.828125 0.28125 1.75q0 2.78125 -1.921875 4.375q-1.90625 1.59375 -5.28125 1.59375q-0.859375 0 -1.5625 -0.125q-1.234375 0.765625 -1.234375 1.78125q0 0.625 0.578125 0.9375q0.578125 0.3125 2.125 0.3125l3.140625 0q2.96875 0 4.515625 1.265625q1.546875 1.265625 1.546875 3.65625q0 3.0625 -2.53125 4.71875q-2.515625 1.65625 -7.28125 1.65625q-3.671875 0 -5.609375 -1.296875q-1.9375 -1.296875 -1.9375 -3.703125q0 -1.671875 1.046875 -2.796875q1.046875 -1.125 2.9375 -1.5625q-0.765625 -0.328125 -1.265625 -1.046875q-0.484375 -0.734375 -0.484375 -1.53125q0 -1.015625 0.5625 -1.703125q0.578125 -0.703125 1.6875 -1.390625q-1.390625 -0.59375 -2.265625 -1.953125q-0.875 -1.359375 -0.875 -3.1875q0 -2.9375 1.84375 -4.546875q1.859375 -1.609375 5.28125 -1.609375q0.75 0 1.59375 0.109375q0.84375 0.109375 1.265625 0.21875l6.234375 0zm-14.140625 20.796875q0 1.234375 1.109375 1.90625q1.109375 0.671875 3.140625 0.671875q3.109375 0 4.640625 -0.90625q1.53125 -0.890625 1.53125 -2.375q0 -1.171875 -0.84375 -1.671875q-0.828125 -0.484375 -3.109375 -0.484375l-2.890625 0q-1.640625 0 -2.609375 0.765625q-0.96875 0.78125 -0.96875 2.09375zm1.640625 -14.96875q0 1.6875 0.859375 2.609375q0.875 0.90625 2.5 0.90625q3.328125 0 3.328125 -3.546875q0 -1.765625 -0.828125 -2.703125q-0.8125 -0.953125 -2.5 -0.953125q-1.65625 0 -2.515625 0.9375q-0.84375 0.9375 -0.84375 2.75zm35.755554 12.171875l-0.765625 -2.5l-0.140625 0q-1.296875 1.640625 -2.625 2.234375q-1.3125 0.59375 -3.375 0.59375q-2.65625 0 -4.140625 -1.421875q-1.484375 -1.4375 -1.484375 -4.0625q0 -2.78125 2.0625 -4.1875q2.0625 -1.421875 6.296875 -1.5625l3.109375 -0.09375l0 -0.96875q0 -1.71875 -0.8125 -2.5625q-0.796875 -0.859375 -2.484375 -0.859375q-1.390625 0 -2.65625 0.40625q-1.265625 0.40625 -2.4375 0.953125l-1.25 -2.734375q1.46875 -0.765625 3.203125 -1.15625q1.75 -0.40625 3.296875 -0.40625q3.4375 0 5.1875 1.5q1.75 1.5 1.75 4.703125l0 12.125l-2.734375 0zm-5.703125 -2.609375q2.078125 0 3.34375 -1.15625q1.265625 -1.171875 1.265625 -3.265625l0 -1.5625l-2.3125 0.09375q-2.703125 0.109375 -3.9375 0.921875q-1.21875 0.796875 -1.21875 2.453125q0 1.203125 0.71875 1.859375q0.71875 0.65625 2.140625 0.65625zm20.47351 -0.15625q1.40625 0 2.796875 -0.4375l0 2.875q-0.625 0.28125 -1.640625 0.46875q-1.0 0.1875 -2.0625 0.1875q-5.4375 0 -5.4375 -5.734375l0 -9.703125l-2.453125 0l0 -1.6875l2.625 -1.390625l1.3125 -3.8125l2.359375 0l0 4.0l5.125 0l0 2.890625l-5.125 0l0 9.640625q0 1.390625 0.6875 2.046875q0.6875 0.65625 1.8125 0.65625z" fill-rule="nonzero"/><path fill="#000000" fill-opacity="0.0" d="m65.67979 433.53513l118.551186 0l0 80.85037l-118.551186 0z" fill-rule="evenodd"/><path fill="#4ca722" d="m101.04565 459.2351q-4.375 0 -7.34375 2.109375q-1.78125 1.25 -3.203125 3.546875q-1.46875 2.359375 -1.71875 4.5l17.75 0l-0.703125 3.484375l-17.46875 0q-0.03125 0.546875 -0.03125 1.046875q0 2.0 0.03125 2.390625l16.765625 0l-0.71875 3.484375l-15.5 0q1.09375 5.96875 5.265625 8.46875q2.984375 1.796875 6.484375 1.796875q4.859375 0 7.59375 -2.546875l0 5.359375q-3.25 1.515625 -7.1875 1.515625q-11.765625 0 -15.90625 -9.796875q-0.828125 -1.984375 -1.4375 -4.796875l-3.984375 0l0.734375 -3.484375l2.734375 0q-0.078125 -1.09375 -0.078125 -2.375q0 -0.515625 0.03125 -1.0625l-3.421875 0l0.734375 -3.484375l3.015625 0q1.625 -8.484375 8.421875 -12.1875q4.1875 -2.296875 9.234375 -2.296875q4.84375 0 8.15625 2.109375l-1.046875 4.84375q-3.171875 -2.625 -7.203125 -2.625zm11.299194 24.5l4.921875 -0.421875q0.546875 3.59375 2.53125 5.40625q2.0 1.8125 4.8125 1.8125q3.375 0 5.7187576 -2.546875q2.34375 -2.5625 2.34375 -6.78125q0 -4.0 -2.25 -6.3125q-2.25 -2.328125 -5.8906326 -2.328125q-2.265625 0 -4.09375 1.03125q-1.828125 1.03125 -2.859375 2.671875l-4.40625 -0.578125l3.703125 -19.609375l18.984383 0l0 4.484375l-15.234383 0l-2.0625 10.25q3.4375 -2.390625 7.21875 -2.390625q5.0000076 0 8.421883 3.46875q3.4375 3.453125 3.4375 8.90625q0 5.171875 -3.015625 8.953125q-3.671875 4.640625 -10.015633 4.640625q-5.21875 0 -8.515625 -2.921875q-3.28125 -2.921875 -3.75 -7.734375zm29.658577 -8.828125q0 -6.765625 1.390625 -10.890625q1.390625 -4.125 4.140625 -6.359375q2.75 -2.25 6.90625 -2.25q3.078125 0 5.390625 1.234375q2.328125 1.234375 3.828125 3.578125q1.515625 2.328125 2.375 5.671875q0.859375 3.34375 0.859375 9.015625q0 6.71875 -1.390625 10.84375q-1.375 4.125 -4.125 6.390625q-2.734375 2.25 -6.9375 2.25q-5.515625 0 -8.671875 -3.96875q-3.765625 -4.765625 -3.765625 -15.515625zm4.8125 0q0 9.40625 2.203125 12.515625q2.203125 3.109375 5.421875 3.109375q3.234375 0 5.4375 -3.125q2.203125 -3.125 2.203125 -12.5q0 -9.421875 -2.203125 -12.515625q-2.203125 -3.109375 -5.484375 -3.109375q-3.234375 0 -5.15625 2.734375q-2.421875 3.5 -2.421875 12.890625z" fill-rule="nonzero"/><path fill="#000000" fill-opacity="0.0" d="m635.46185 423.19818l325.1339 0l0 147.9685l-325.1339 0z" fill-rule="evenodd"/><path fill="#4ca722" d="m768.141 453.07318q-5.46875 0 -9.1875 2.640625q-2.203125 1.5625 -4.0 4.421875q-1.828125 2.96875 -2.15625 5.625l22.203125 0l-0.875 4.375l-21.84375 0q-0.03125 0.671875 -0.03125 1.296875q0 2.5 0.03125 2.984375l20.96875 0l-0.921875 4.375l-19.359375 0q1.359375 7.453125 6.578125 10.578125q3.734375 2.234375 8.09375 2.234375q6.09375 0 9.515625 -3.1875l0 6.703125q-4.078125 1.890625 -8.984375 1.890625q-14.71875 0 -19.890625 -12.234375q-1.046875 -2.46875 -1.796875 -5.984375l-4.96875 0l0.90625 -4.375l3.421875 0q-0.109375 -1.359375 -0.109375 -2.953125q0 -0.65625 0.046875 -1.328125l-4.265625 0l0.90625 -4.375l3.78125 0q2.015625 -10.609375 10.5 -15.21875q5.25 -2.875 11.5625 -2.875q6.046875 0 10.1875 2.640625l-1.296875 6.046875q-3.984375 -3.28125 -9.015625 -3.28125zm14.14917 30.53125l5.859375 -0.78125q1.015625 4.984375 3.4375 7.1875q2.421875 2.1875 5.90625 2.1875q4.125 0 6.96875 -2.859375q2.859375 -2.875 2.859375 -7.109375q0 -4.03125 -2.640625 -6.640625q-2.625 -2.625 -6.703125 -2.625q-1.65625 0 -4.125 0.640625l0.640625 -5.140625q0.59375 0.0625 0.953125 0.0625q3.734375 0 6.71875 -1.953125q3.0 -1.953125 3.0 -6.015625q0 -3.21875 -2.1875 -5.328125q-2.171875 -2.125 -5.609375 -2.125q-3.421875 0 -5.703125 2.15625q-2.28125 2.140625 -2.921875 6.4375l-5.859375 -1.046875q1.0625 -5.890625 4.875 -9.125q3.8125 -3.234375 9.46875 -3.234375q3.90625 0 7.1875 1.671875q3.296875 1.671875 5.03125 4.578125q1.75 2.890625 1.75 6.140625q0 3.09375 -1.671875 5.640625q-1.65625 2.53125 -4.90625 4.03125q4.234375 0.984375 6.578125 4.0625q2.34375 3.0625 2.34375 7.6875q0 6.25 -4.5625 10.59375q-4.546875 4.34375 -11.515625 4.34375q-6.28125 0 -10.4375 -3.734375q-4.140625 -3.75 -4.734375 -9.703125zm37.039795 -10.9375q0 -8.46875 1.734375 -13.625q1.75 -5.15625 5.171875 -7.953125q3.4375 -2.796875 8.65625 -2.796875q3.84375 0 6.734375 1.546875q2.890625 1.546875 4.78125 4.46875q1.890625 2.90625 2.953125 7.09375q1.078125 4.171875 1.078125 11.265625q0 8.390625 -1.71875 13.5625q-1.71875 5.15625 -5.15625 7.96875q-3.4375 2.8125 -8.671875 2.8125q-6.90625 0 -10.84375 -4.953125q-4.71875 -5.953125 -4.71875 -19.390625zm6.015625 0q0 11.75 2.75 15.640625q2.75 3.890625 6.796875 3.890625q4.03125 0 6.78125 -3.90625q2.75 -3.90625 2.75 -15.625q0 -11.78125 -2.75 -15.65625q-2.75 -3.875 -6.84375 -3.875q-4.046875 0 -6.453125 3.421875q-3.03125 4.359375 -3.03125 16.109375z" fill-rule="nonzero"/><path fill="#000000" fill-opacity="0.0" d="m738.0852 430.41672l325.1339 0l0 147.96848l-325.1339 0z" fill-rule="evenodd"/><path fill="#4ca722" d="m877.1287 495.0436l0 -34.43753l3.84375 0l0 3.234375q1.359375 -1.90625 3.0625 -2.84375q1.71875 -0.953125 4.15625 -0.953125q3.1875 0 5.625 1.640625q2.4375 1.640625 3.671875 4.625q1.25 2.984375 1.25 6.546875q0 3.828125 -1.375 6.890625q-1.375 3.046875 -3.984375 4.6875q-2.609375 1.625 -5.5 1.625q-2.109375 0 -3.78125 -0.890625q-1.671875 -0.890625 -2.75 -2.25l0 12.1250305l-4.21875 0zm3.8125 -21.859406q0 4.8125 1.9375 7.109375q1.953125 2.296875 4.71875 2.296875q2.8125 0 4.8125 -2.375q2.015625 -2.390625 2.015625 -7.375q0 -4.765625 -1.96875 -7.125q-1.953125 -2.375 -4.671875 -2.375q-2.6875 0 -4.765625 2.53125q-2.078125 2.515625 -2.078125 7.3125zm22.882812 12.3125l0 -34.359375l4.21875 0l0 12.328125q2.953125 -3.421875 7.453125 -3.421875q2.765625 0 4.796875 1.09375q2.046875 1.078125 2.921875 3.0q0.875 1.921875 0.875 5.578125l0 15.78125l-4.21875 0l0 -15.78125q0 -3.15625 -1.375 -4.59375q-1.359375 -1.453125 -3.875 -1.453125q-1.875 0 -3.53125 0.984375q-1.640625 0.96875 -2.34375 2.640625q-0.703125 1.65625 -0.703125 4.578125l0 13.625l-4.21875 0z" fill-rule="nonzero"/><path fill="#000000" fill-opacity="0.0" d="m294.88287 433.53546l155.49606 0l0 80.8504l-155.49606 0z" fill-rule="evenodd"/><path fill="#4ca722" d="m333.8919 459.23547q-4.375 0 -7.34375 2.109375q-1.78125 1.25 -3.203125 3.546875q-1.46875 2.359375 -1.71875 4.5l17.75 0l-0.703125 3.484375l-17.46875 0q-0.03125 0.546875 -0.03125 1.046875q0 2.0 0.03125 2.390625l16.765625 0l-0.71875 3.484375l-15.5 0q1.09375 5.96875 5.265625 8.46875q2.984375 1.796875 6.484375 1.796875q4.859375 0 7.59375 -2.546875l0 5.359375q-3.25 1.515625 -7.1875 1.515625q-11.765625 0 -15.90625 -9.796875q-0.828125 -1.984375 -1.4375 -4.796875l-3.984375 0l0.734375 -3.484375l2.734375 0q-0.078125 -1.09375 -0.078125 -2.375q0 -0.515625 0.03125 -1.0625l-3.421875 0l0.734375 -3.484375l3.015625 0q1.625 -8.484375 8.421875 -12.1875q4.1875 -2.296875 9.234375 -2.296875q4.84375 0 8.15625 2.109375l-1.046875 4.84375q-3.171875 -2.625 -7.203125 -2.625zm11.299194 24.5l4.921875 -0.421875q0.546875 3.59375 2.53125 5.40625q2.0 1.8125 4.8125 1.8125q3.375 0 5.71875 -2.546875q2.34375 -2.5625 2.34375 -6.78125q0 -4.0 -2.25 -6.3125q-2.25 -2.328125 -5.890625 -2.328125q-2.265625 0 -4.09375 1.03125q-1.828125 1.03125 -2.859375 2.671875l-4.40625 -0.578125l3.703125 -19.609375l18.984375 0l0 4.484375l-15.234375 0l-2.0625 10.25q3.4375 -2.390625 7.21875 -2.390625q5.0 0 8.421875 3.46875q3.4375 3.453125 3.4375 8.90625q0 5.171875 -3.015625 8.953125q-3.671875 4.640625 -10.015625 4.640625q-5.21875 0 -8.515625 -2.921875q-3.28125 -2.921875 -3.75 -7.734375zm29.65857 -8.828125q0 -6.765625 1.390625 -10.890625q1.390625 -4.125 4.140625 -6.359375q2.75 -2.25 6.90625 -2.25q3.078125 0 5.390625 1.234375q2.328125 1.234375 3.828125 3.578125q1.515625 2.328125 2.375 5.671875q0.859375 3.34375 0.859375 9.015625q0 6.71875 -1.390625 10.84375q-1.375 4.125 -4.125 6.390625q-2.734375 2.25 -6.9375 2.25q-5.515625 0 -8.671875 -3.96875q-3.765625 -4.765625 -3.765625 -15.515625zm4.8125 0q0 9.40625 2.203125 12.515625q2.203125 3.109375 5.421875 3.109375q3.234375 0 5.4375 -3.125q2.203125 -3.125 2.203125 -12.5q0 -9.421875 -2.203125 -12.515625q-2.203125 -3.109375 -5.484375 -3.109375q-3.234375 0 -5.15625 2.734375q-2.421875 3.5 -2.421875 12.890625zm24.84607 0q0 -6.765625 1.390625 -10.890625q1.390625 -4.125 4.140625 -6.359375q2.75 -2.25 6.90625 -2.25q3.078125 0 5.390625 1.234375q2.328125 1.234375 3.828125 3.578125q1.515625 2.328125 2.375 5.671875q0.859375 3.34375 0.859375 9.015625q0 6.71875 -1.390625 10.84375q-1.375 4.125 -4.125 6.390625q-2.734375 2.25 -6.9375 2.25q-5.515625 0 -8.671875 -3.96875q-3.765625 -4.765625 -3.765625 -15.515625zm4.8125 0q0 9.40625 2.203125 12.515625q2.203125 3.109375 5.421875 3.109375q3.234375 0 5.4375 -3.125q2.203125 -3.125 2.203125 -12.5q0 -9.421875 -2.203125 -12.515625q-2.203125 -3.109375 -5.484375 -3.109375q-3.234375 0 -5.15625 2.734375q-2.421875 3.5 -2.421875 12.890625z" fill-rule="nonzero"/><path fill="#000000" fill-opacity="0.0" d="m124.95538 433.53513l247.68503 0" fill-rule="evenodd"/><path stroke="#b6d7a8" stroke-width="3.0" stroke-linejoin="round" stroke-linecap="butt" d="m136.32538 433.5351l224.94504 0" fill-rule="evenodd"/><path fill="#b6d7a8" stroke="#b6d7a8" stroke-width="3.0" stroke-linecap="butt" d="m126.45538 433.5351c0 -2.725525 2.2094727 -4.9349976 4.9349976 -4.9349976c2.725525 0 4.9349976 2.2094727 4.9349976 4.9349976c0 2.725525 -2.2094727 4.9349976 -4.9349976 4.9349976c-2.725525 0 -4.9349976 -2.2094727 -4.9349976 -4.9349976z" fill-rule="nonzero"/><path fill="#b6d7a8" stroke="#b6d7a8" stroke-width="3.0" stroke-linecap="butt" d="m371.1404 433.5351c0 2.725525 -2.2094727 4.9349976 -4.9349976 4.9349976c-2.725525 0 -4.9349976 -2.2094727 -4.9349976 -4.9349976c0 -2.725525 2.2094727 -4.9349976 4.9349976 -4.9349976c2.725525 0 4.9349976 2.2094727 4.9349976 4.9349976z" fill-rule="nonzero"/><path fill="#000000" fill-opacity="0.0" d="m87.826775 381.1942l84.22047 0l0 35.275604l-84.22047 0z" fill-rule="evenodd"/><path fill="#6aa84f" d="m119.660805 408.11423l-7.421875 0l0 -13.3125l7.421875 0l0 1.375l-5.875 0l0 4.28125l5.53125 0l0 1.375l-5.53125 0l0 4.890625l5.875 0l0 1.390625zm8.87571 0l-0.3125 -1.421875l-0.0625 0q-0.7499924 0.9375 -1.4999924 1.28125q-0.734375 0.328125 -1.84375 0.328125q-1.484375 0 -2.328125 -0.765625q-0.84375 -0.765625 -0.84375 -2.1875q0 -3.015625 4.828125 -3.171875l1.7031174 -0.046875l0 -0.625q0 -1.171875 -0.5156174 -1.734375q-0.5 -0.5625 -1.609375 -0.5625q-1.25 0 -2.828125 0.765625l-0.453125 -1.15625q0.734375 -0.390625 1.609375 -0.609375q0.875 -0.234375 1.765625 -0.234375q1.78125 0 2.6406174 0.796875q0.859375 0.78125 0.859375 2.53125l0 6.8125l-1.109375 0zm-3.4218674 -1.0625q1.40625 0 2.203125 -0.765625q0.8124924 -0.78125 0.8124924 -2.1875l0 -0.890625l-1.4999924 0.0625q-1.8125 0.0625 -2.609375 0.5625q-0.796875 0.484375 -0.796875 1.546875q0 0.8125 0.5 1.25q0.5 0.421875 1.390625 0.421875zm14.09446 -1.65625q0 1.390625 -1.046875 2.15625q-1.03125 0.75 -2.90625 0.75q-1.984375 0 -3.09375 -0.640625l0 -1.390625q0.71875 0.359375 1.53125 0.578125q0.828125 0.203125 1.59375 0.203125q1.1875 0 1.828125 -0.375q0.640625 -0.390625 0.640625 -1.15625q0 -0.578125 -0.515625 -1.0q-0.5 -0.421875 -1.96875 -0.984375q-1.390625 -0.515625 -1.984375 -0.890625q-0.578125 -0.390625 -0.875 -0.875q-0.28125 -0.5 -0.28125 -1.1875q0 -1.21875 0.984375 -1.921875q1.0 -0.71875 2.734375 -0.71875q1.609375 0 3.140625 0.65625l-0.53125 1.234375q-1.5 -0.625 -2.71875 -0.625q-1.078125 0 -1.625 0.34375q-0.546875 0.34375 -0.546875 0.921875q0 0.40625 0.203125 0.6875q0.203125 0.28125 0.65625 0.546875q0.453125 0.25 1.75 0.734375q1.78125 0.640625 2.40625 1.296875q0.625 0.65625 0.625 1.65625zm0.86872864 -7.265625l1.625 0l2.1875 5.6875q0.71875 1.953125 0.890625 2.828125l0.078125 0q0.109375 -0.46875 0.484375 -1.59375q0.390625 -1.125 2.484375 -6.921875l1.609375 0l-4.28125 11.375q-0.640625 1.671875 -1.5 2.375q-0.84375 0.71875 -2.078125 0.71875q-0.703125 0 -1.375 -0.15625l0 -1.21875q0.5 0.109375 1.125 0.109375q1.5625 0 2.21875 -1.75l0.5625 -1.421875l-4.03125 -10.03125z" fill-rule="nonzero"/><path fill="#000000" fill-opacity="0.0" d="m294.8819 362.99213l149.92126 0l0 35.275604l-149.92126 0z" fill-rule="evenodd"/><path fill="#6aa84f" d="m353.737 376.5996l1.671875 0l-4.8125 13.3125l-1.53125 0l-4.765625 -13.3125l1.640625 0l3.0625 8.609375q0.53125 1.484375 0.828125 2.890625q0.328125 -1.46875 0.859375 -2.9375l3.046875 -8.5625zm9.416962 13.3125l-0.3125 -1.421875l-0.0625 0q-0.75 0.9375 -1.5 1.28125q-0.734375 0.328125 -1.84375 0.328125q-1.484375 0 -2.328125 -0.765625q-0.84375 -0.765625 -0.84375 -2.1875q0 -3.015625 4.828125 -3.171875l1.703125 -0.046875l0 -0.625q0 -1.171875 -0.515625 -1.734375q-0.5 -0.5625 -1.609375 -0.5625q-1.25 0 -2.828125 0.765625l-0.453125 -1.15625q0.734375 -0.390625 1.609375 -0.609375q0.875 -0.234375 1.765625 -0.234375q1.78125 0 2.640625 0.796875q0.859375 0.78125 0.859375 2.53125l0 6.8125l-1.109375 0zm-3.421875 -1.0625q1.40625 0 2.203125 -0.765625q0.8125 -0.78125 0.8125 -2.1875l0 -0.890625l-1.5 0.0625q-1.8125 0.0625 -2.609375 0.5625q-0.796875 0.484375 -0.796875 1.546875q0 0.8125 0.5 1.25q0.5 0.421875 1.390625 0.421875zm14.094482 -1.65625q0 1.390625 -1.046875 2.15625q-1.03125 0.75 -2.90625 0.75q-1.984375 0 -3.09375 -0.640625l0 -1.390625q0.71875 0.359375 1.53125 0.578125q0.828125 0.203125 1.59375 0.203125q1.1875 0 1.828125 -0.375q0.640625 -0.390625 0.640625 -1.15625q0 -0.578125 -0.515625 -1.0q-0.5 -0.421875 -1.96875 -0.984375q-1.390625 -0.515625 -1.984375 -0.890625q-0.578125 -0.390625 -0.875 -0.875q-0.28125 -0.5 -0.28125 -1.1875q0 -1.21875 0.984375 -1.921875q1.0 -0.71875 2.734375 -0.71875q1.609375 0 3.140625 0.65625l-0.53125 1.234375q-1.5 -0.625 -2.71875 -0.625q-1.078125 0 -1.625 0.34375q-0.546875 0.34375 -0.546875 0.921875q0 0.40625 0.203125 0.6875q0.203125 0.28125 0.65625 0.546875q0.453125 0.25 1.75 0.734375q1.78125 0.640625 2.40625 1.296875q0.625 0.65625 0.625 1.65625zm5.6812134 1.65625q0.40625 0 0.765625 -0.0625q0.375 -0.0625 0.59375 -0.125l0 1.15625q-0.234375 0.125 -0.71875 0.203125q-0.484375 0.078125 -0.859375 0.078125q-2.890625 0 -2.890625 -3.0625l0 -5.9375l-1.4375 0l0 -0.71875l1.4375 -0.640625l0.625 -2.125l0.875 0l0 2.3125l2.90625 0l0 1.171875l-2.90625 0l0 5.875q0 0.90625 0.421875 1.390625q0.4375 0.484375 1.1875 0.484375zm4.8674316 1.0625l-1.5 0l0 -14.171875l1.5 0l0 14.171875zm1.6249695 -9.984375l1.625 0l2.1875 5.6875q0.71875 1.953125 0.890625 2.828125l0.078125 0q0.109375 -0.46875 0.484375 -1.59375q0.390625 -1.125 2.484375 -6.921875l1.609375 0l-4.28125 11.375q-0.640625 1.671875 -1.5 2.375q-0.84375 0.71875 -2.078125 0.71875q-0.703125 0 -1.375 -0.15625l0 -1.21875q0.5 0.109375 1.125 0.109375q1.5625 0 2.21875 -1.75l0.5625 -1.421875l-4.03125 -10.03125z" fill-rule="nonzero"/><path fill="#6aa84f" d="m322.87164 399.7871q-2.1875 0 -3.46875 1.46875q-1.265625 1.453125 -1.265625 4.0q0 2.609375 1.21875 4.046875q1.234375 1.421875 3.5 1.421875q1.390625 0 3.171875 -0.5l0 1.34375q-1.375 0.53125 -3.40625 0.53125q-2.9375 0 -4.546875 -1.78125q-1.59375 -1.796875 -1.59375 -5.078125q0 -2.0625 0.765625 -3.609375q0.765625 -1.546875 2.21875 -2.390625q1.453125 -0.84375 3.421875 -0.84375q2.09375 0 3.671875 0.765625l-0.65625 1.328125q-1.515625 -0.703125 -3.03125 -0.703125zm14.45697 7.125q0 2.4375 -1.234375 3.8125q-1.21875 1.375 -3.390625 1.375q-1.34375 0 -2.390625 -0.625q-1.03125 -0.640625 -1.59375 -1.8125q-0.5625 -1.171875 -0.5625 -2.75q0 -2.4375 1.21875 -3.796875q1.21875 -1.375 3.390625 -1.375q2.09375 0 3.328125 1.40625q1.234375 1.390625 1.234375 3.765625zm-7.609375 0q0 1.90625 0.765625 2.921875q0.765625 1.0 2.25 1.0q1.484375 0 2.25 -1.0q0.78125 -1.0 0.78125 -2.921875q0 -1.90625 -0.78125 -2.890625q-0.765625 -0.984375 -2.265625 -0.984375q-1.484375 0 -2.25 0.96875q-0.75 0.96875 -0.75 2.90625zm22.987213 5.0l0 -6.5q0 -1.1875 -0.515625 -1.78125q-0.5 -0.59375 -1.578125 -0.59375q-1.40625 0 -2.09375 0.8125q-0.671875 0.796875 -0.671875 2.484375l0 5.578125l-1.5 0l0 -6.5q0 -1.1875 -0.515625 -1.78125q-0.515625 -0.59375 -1.59375 -0.59375q-1.421875 0 -2.09375 0.859375q-0.65625 0.84375 -0.65625 2.78125l0 5.234375l-1.5 0l0 -9.984375l1.21875 0l0.25 1.359375l0.078125 0q0.421875 -0.71875 1.203125 -1.125q0.78125 -0.421875 1.75 -0.421875q2.328125 0 3.0625 1.703125l0.0625 0q0.453125 -0.78125 1.296875 -1.234375q0.84375 -0.46875 1.9375 -0.46875q1.6875 0 2.53125 0.875q0.84375 0.875 0.84375 2.78125l0 6.515625l-1.515625 0zm9.275452 0.1875q-0.96875 0 -1.78125 -0.359375q-0.8125 -0.359375 -1.359375 -1.109375l-0.109375 0q0.109375 0.875 0.109375 1.65625l0 4.109375l-1.5 0l0 -14.46875l1.21875 0l0.21875 1.359375l0.0625 0q0.59375 -0.8125 1.359375 -1.171875q0.78125 -0.375 1.78125 -0.375q1.984375 0 3.0625 1.359375q1.078125 1.359375 1.078125 3.8125q0 2.453125 -1.09375 3.828125q-1.09375 1.359375 -3.046875 1.359375zm-0.21875 -9.0625q-1.53125 0 -2.21875 0.84375q-0.671875 0.84375 -0.703125 2.6875l0 0.34375q0 2.109375 0.703125 3.015625q0.703125 0.90625 2.25 0.90625q1.296875 0 2.03125 -1.046875q0.734375 -1.046875 0.734375 -2.890625q0 -1.875 -0.734375 -2.859375q-0.734375 -1.0 -2.0625 -1.0zm8.510559 8.875l-1.5 0l0 -14.171875l1.5 0l0 14.171875zm4.7187195 0l-1.5 0l0 -9.984375l1.5 0l0 9.984375zm-1.640625 -12.6875q0 -0.515625 0.25 -0.75q0.265625 -0.25 0.65625 -0.25q0.359375 0 0.625 0.25q0.265625 0.234375 0.265625 0.75q0 0.515625 -0.265625 0.765625q-0.265625 0.25 -0.625 0.25q-0.390625 0 -0.65625 -0.25q-0.25 -0.25 -0.25 -0.765625zm8.8437195 12.875q-2.171875 0 -3.359375 -1.328125q-1.1875 -1.34375 -1.1875 -3.78125q0 -2.515625 1.203125 -3.875q1.21875 -1.375 3.4375 -1.375q0.71875 0 1.4375 0.15625q0.734375 0.15625 1.140625 0.375l-0.46875 1.28125q-0.5 -0.203125 -1.09375 -0.328125q-0.59375 -0.140625 -1.046875 -0.140625q-3.046875 0 -3.046875 3.875q0 1.84375 0.734375 2.828125q0.75 0.984375 2.21875 0.984375q1.25 0 2.546875 -0.53125l0 1.328125q-1.0 0.53125 -2.515625 0.53125zm11.037994 -0.1875l-0.3125 -1.421875l-0.0625 0q-0.75 0.9375 -1.5 1.28125q-0.734375 0.328125 -1.84375 0.328125q-1.484375 0 -2.328125 -0.765625q-0.84375 -0.765625 -0.84375 -2.1875q0 -3.015625 4.828125 -3.171875l1.703125 -0.046875l0 -0.625q0 -1.171875 -0.515625 -1.734375q-0.5 -0.5625 -1.609375 -0.5625q-1.25 0 -2.828125 0.765625l-0.453125 -1.15625q0.734375 -0.390625 1.609375 -0.609375q0.875 -0.234375 1.765625 -0.234375q1.78125 0 2.640625 0.796875q0.859375 0.78125 0.859375 2.53125l0 6.8125l-1.109375 0zm-3.421875 -1.0625q1.40625 0 2.203125 -0.765625q0.8125 -0.78125 0.8125 -2.1875l0 -0.890625l-1.5 0.0625q-1.8125 0.0625 -2.609375 0.5625q-0.796875 0.484375 -0.796875 1.546875q0 0.8125 0.5 1.25q0.5 0.421875 1.390625 0.421875zm10.875732 0q0.40625 0 0.765625 -0.0625q0.375 -0.0625 0.59375 -0.125l0 1.15625q-0.234375 0.125 -0.71875 0.203125q-0.484375 0.078125 -0.859375 0.078125q-2.890625 0 -2.890625 -3.0625l0 -5.9375l-1.4375 0l0 -0.71875l1.4375 -0.640625l0.625 -2.125l0.875 0l0 2.3125l2.90625 0l0 1.171875l-2.90625 0l0 5.875q0 0.90625 0.421875 1.390625q0.4375 0.484375 1.1875 0.484375zm7.586151 1.25q-2.21875 0 -3.5 -1.34375q-1.28125 -1.359375 -1.28125 -3.75q0 -2.421875 1.1875 -3.84375q1.1875 -1.421875 3.1875 -1.421875q1.890625 0 2.96875 1.234375q1.09375 1.234375 1.09375 3.265625l0 0.953125l-6.875 0q0.046875 1.765625 0.890625 2.671875q0.84375 0.90625 2.375 0.90625q1.609375 0 3.1875 -0.671875l0 1.34375q-0.796875 0.34375 -1.515625 0.5q-0.71875 0.15625 -1.71875 0.15625zm-0.421875 -9.09375q-1.203125 0 -1.921875 0.796875q-0.703125 0.78125 -0.828125 2.15625l5.21875 0q0 -1.421875 -0.640625 -2.1875q-0.640625 -0.765625 -1.828125 -0.765625zm13.466827 7.5625l-0.09375 0q-1.046875 1.53125 -3.125 1.53125q-1.96875 0 -3.0625 -1.34375q-1.078125 -1.34375 -1.078125 -3.8125q0 -2.46875 1.09375 -3.828125q1.09375 -1.375 3.046875 -1.375q2.03125 0 3.109375 1.484375l0.125 0l-0.0625 -0.71875l-0.046875 -0.703125l0 -4.0625l1.515625 0l0 14.171875l-1.234375 0l-0.1875 -1.34375zm-3.03125 0.265625q1.546875 0 2.234375 -0.84375q0.703125 -0.84375 0.703125 -2.71875l0 -0.328125q0 -2.125 -0.703125 -3.03125q-0.703125 -0.90625 -2.25 -0.90625q-1.328125 0 -2.046875 1.046875q-0.703125 1.03125 -0.703125 2.90625q0 1.921875 0.703125 2.90625q0.703125 0.96875 2.0625 0.96875z" fill-rule="nonzero"/><path fill="#000000" fill-opacity="0.0" d="m90.59318 243.64305l316.40945 0l0 80.85039l-316.40945 0z" fill-rule="evenodd"/><path fill="#6aa84f" d="m116.91856 271.9243l2.703125 0q2.71875 0 3.9375 -1.015625q1.21875 -1.015625 1.21875 -3.0q0 -2.015625 -1.328125 -2.890625q-1.3125 -0.875 -3.96875 -0.875l-2.5625 0l0 7.78125zm0 3.21875l0 9.5l-3.890625 0l0 -23.796875l6.71875 0q4.609375 0 6.8125 1.734375q2.2187424 1.71875 2.2187424 5.203125q0 4.4375 -4.6249924 6.328125l6.7343674 10.53125l-4.4374924 0l-5.6875 -9.5l-3.84375 0zm28.27076 9.5l-0.765625 -2.5l-0.140625 0q-1.296875 1.640625 -2.625 2.234375q-1.3125 0.59375 -3.375 0.59375q-2.65625 0 -4.140625 -1.421875q-1.484375 -1.4375 -1.484375 -4.0625q0 -2.78125 2.0625 -4.1875q2.0625 -1.421875 6.296875 -1.5625l3.109375 -0.09375l0 -0.96875q0 -1.71875 -0.8125 -2.5625q-0.796875 -0.859375 -2.484375 -0.859375q-1.390625 0 -2.65625 0.40625q-1.265625 0.40625 -2.4375 0.953125l-1.25 -2.734375q1.46875 -0.765625 3.203125 -1.15625q1.75 -0.40625 3.296875 -0.40625q3.4375 0 5.1875 1.5q1.75 1.5 1.75 4.703125l0 12.125l-2.734375 0zm-5.703125 -2.609375q2.078125 0 3.34375 -1.15625q1.265625 -1.171875 1.265625 -3.265625l0 -1.5625l-2.3125 0.09375q-2.703125 0.109375 -3.9375 0.921875q-1.21875 0.796875 -1.21875 2.453125q0 1.203125 0.71875 1.859375q0.71875 0.65625 2.140625 0.65625zm29.598541 2.609375l-3.828125 0l0 -11.0625q0 -2.09375 -0.84375 -3.109375q-0.84375 -1.03125 -2.65625 -1.03125q-2.4375 0 -3.5625 1.4375q-1.109375 1.4375 -1.109375 4.796875l0 8.96875l-3.828125 0l0 -18.0l3.0 0l0.53125 2.359375l0.1875 0q0.828125 -1.28125 2.3125 -1.984375q1.5 -0.703125 3.328125 -0.703125q6.46875 0 6.46875 6.59375l0 11.734375zm20.530548 -18.0l0 2.09375l-3.078125 0.578125q0.421875 0.5625 0.6875 1.40625q0.28125 0.828125 0.28125 1.75q0 2.78125 -1.921875 4.375q-1.90625 1.59375 -5.28125 1.59375q-0.859375 0 -1.5625 -0.125q-1.234375 0.765625 -1.234375 1.78125q0 0.625 0.578125 0.9375q0.578125 0.3125 2.125 0.3125l3.140625 0q2.96875 0 4.515625 1.265625q1.546875 1.265625 1.546875 3.65625q0 3.0625 -2.53125 4.71875q-2.515625 1.65625 -7.28125 1.65625q-3.671875 0 -5.609375 -1.296875q-1.9375 -1.296875 -1.9375 -3.703125q0 -1.671875 1.046875 -2.796875q1.046875 -1.125 2.9375 -1.5625q-0.765625 -0.328125 -1.265625 -1.046875q-0.484375 -0.734375 -0.484375 -1.53125q0 -1.015625 0.5625 -1.703125q0.578125 -0.703125 1.6875 -1.390625q-1.390625 -0.59375 -2.265625 -1.953125q-0.875 -1.359375 -0.875 -3.1875q0 -2.9375 1.84375 -4.546875q1.859375 -1.609375 5.28125 -1.609375q0.75 0 1.59375 0.109375q0.84375 0.109375 1.265625 0.21875l6.234375 0zm-14.140625 20.796875q0 1.234375 1.109375 1.90625q1.109375 0.671875 3.140625 0.671875q3.109375 0 4.640625 -0.90625q1.53125 -0.890625 1.53125 -2.375q0 -1.171875 -0.84375 -1.671875q-0.828125 -0.484375 -3.109375 -0.484375l-2.890625 0q-1.640625 0 -2.609375 0.765625q-0.96875 0.78125 -0.96875 2.09375zm1.640625 -14.96875q0 1.6875 0.859375 2.609375q0.875 0.90625 2.5 0.90625q3.328125 0 3.328125 -3.546875q0 -1.765625 -0.828125 -2.703125q-0.8125 -0.953125 -2.5 -0.953125q-1.65625 0 -2.515625 0.9375q-0.84375 0.9375 -0.84375 2.75zm19.660522 12.171875l-3.828125 0l0 -18.0l3.828125 0l0 18.0zm-4.0625 -22.765625q0 -1.03125 0.5625 -1.578125q0.5625 -0.5625 1.609375 -0.5625q1.0 0 1.5625 0.5625q0.5625 0.546875 0.5625 1.578125q0 0.96875 -0.5625 1.53125q-0.5625 0.5625 -1.5625 0.5625q-1.046875 0 -1.609375 -0.5625q-0.5625 -0.5625 -0.5625 -1.53125zm25.354675 22.765625l-3.828125 0l0 -11.0625q0 -2.09375 -0.84375 -3.109375q-0.84375 -1.03125 -2.65625 -1.03125q-2.4375 0 -3.5625 1.4375q-1.109375 1.4375 -1.109375 4.796875l0 8.96875l-3.828125 0l0 -18.0l3.0 0l0.53125 2.359375l0.1875 0q0.828125 -1.28125 2.3125 -1.984375q1.5 -0.703125 3.328125 -0.703125q6.46875 0 6.46875 6.59375l0 11.734375zm20.530548 -18.0l0 2.09375l-3.078125 0.578125q0.421875 0.5625 0.6875 1.40625q0.28125 0.828125 0.28125 1.75q0 2.78125 -1.921875 4.375q-1.90625 1.59375 -5.28125 1.59375q-0.859375 0 -1.5625 -0.125q-1.234375 0.765625 -1.234375 1.78125q0 0.625 0.578125 0.9375q0.578125 0.3125 2.125 0.3125l3.140625 0q2.96875 0 4.515625 1.265625q1.546875 1.265625 1.546875 3.65625q0 3.0625 -2.53125 4.71875q-2.515625 1.65625 -7.28125 1.65625q-3.671875 0 -5.609375 -1.296875q-1.9375 -1.296875 -1.9375 -3.703125q0 -1.671875 1.046875 -2.796875q1.046875 -1.125 2.9375 -1.5625q-0.765625 -0.328125 -1.265625 -1.046875q-0.484375 -0.734375 -0.484375 -1.53125q0 -1.015625 0.5625 -1.703125q0.578125 -0.703125 1.6875 -1.390625q-1.390625 -0.59375 -2.265625 -1.953125q-0.875 -1.359375 -0.875 -3.1875q0 -2.9375 1.84375 -4.546875q1.859375 -1.609375 5.28125 -1.609375q0.75 0 1.59375 0.109375q0.84375 0.109375 1.265625 0.21875l6.234375 0zm-14.140625 20.796875q0 1.234375 1.109375 1.90625q1.109375 0.671875 3.140625 0.671875q3.109375 0 4.640625 -0.90625q1.53125 -0.890625 1.53125 -2.375q0 -1.171875 -0.84375 -1.671875q-0.828125 -0.484375 -3.109375 -0.484375l-2.890625 0q-1.640625 0 -2.609375 0.765625q-0.96875 0.78125 -0.96875 2.09375zm1.640625 -14.96875q0 1.6875 0.859375 2.609375q0.875 0.90625 2.5 0.90625q3.328125 0 3.328125 -3.546875q0 -1.765625 -0.828125 -2.703125q-0.8125 -0.953125 -2.5 -0.953125q-1.65625 0 -2.515625 0.9375q-0.84375 0.9375 -0.84375 2.75zm33.677414 -6.15625q3.375 0 5.25 2.453125q1.890625 2.4375 1.890625 6.84375q0 4.421875 -1.90625 6.890625q-1.90625 2.46875 -5.296875 2.46875q-3.40625 0 -5.2968903 -2.453125l-0.265625 0l-0.703125 2.125l-2.859375 0l0 -25.328125l3.828125 0l0 6.03125q0 0.65625 -0.078125 1.984375q-0.0625 1.3125 -0.09375 1.671875l0.171875 0q1.8125153 -2.6875 5.3593903 -2.6875zm-0.984375 3.125q-2.3125 0 -3.3281403 1.359375q-1.015625 1.359375 -1.046875 4.546875l0 0.265625q0 3.28125 1.03125 4.765625q1.0468903 1.46875 3.4062653 1.46875q2.03125 0 3.078125 -1.609375q1.0625 -1.609375 1.0625 -4.65625q0 -6.140625 -4.203125 -6.140625zm20.421234 15.53125q-4.203125 0 -6.578125 -2.453125q-2.359375 -2.453125 -2.359375 -6.75q0 -4.40625 2.1875 -6.921875q2.203125 -2.53125 6.046875 -2.53125q3.5625 0 5.625 2.171875q2.078125 2.15625 2.078125 5.953125l0 2.0625l-12.0 0q0.078125 2.625 1.40625 4.03125q1.34375 1.40625 3.765625 1.40625q1.609375 0 2.984375 -0.296875q1.375 -0.296875 2.953125 -1.0l0 3.109375q-1.40625 0.65625 -2.84375 0.9375q-1.421875 0.28125 -3.265625 0.28125zm-0.703125 -15.75q-1.8125 0 -2.921875 1.15625q-1.09375 1.15625 -1.3125 3.359375l8.171875 0q-0.03125 -2.21875 -1.078125 -3.359375q-1.03125 -1.15625 -2.859375 -1.15625zm18.749603 12.65625q1.40625 0 2.796875 -0.4375l0 2.875q-0.625 0.28125 -1.640625 0.46875q-1.0 0.1875 -2.0625 0.1875q-5.4375 0 -5.4375 -5.734375l0 -9.703125l-2.453125 0l0 -1.6875l2.625 -1.390625l1.3125 -3.8125l2.359375 0l0 4.0l5.125 0l0 2.890625l-5.125 0l0 9.640625q0 1.390625 0.6875 2.046875q0.6875 0.65625 1.8125 0.65625zm21.162659 2.765625l-2.328125 -8.390625q-0.421875 -1.34375 -1.53125 -6.203125l-0.15625 0q-0.9375 4.390625 -1.484375 6.234375l-2.40625 8.359375l-4.21875 0l-5.046875 -18.0l3.90625 0l2.296875 8.875q0.78125 3.28125 1.09375 5.625l0.109375 0q0.15625 -1.1875 0.484375 -2.71875q0.34375 -1.546875 0.578125 -2.3125l2.734375 -9.46875l4.203125 0l2.65625 9.46875q0.25 0.796875 0.609375 2.453125q0.359375 1.640625 0.4375 2.546875l0.125 0q0.25 -2.0 1.140625 -5.59375l2.328125 -8.875l3.84375 0l-5.078125 18.0l-4.296875 0zm20.319336 0.328125q-4.203125 0 -6.578125 -2.453125q-2.359375 -2.453125 -2.359375 -6.75q0 -4.40625 2.1875 -6.921875q2.203125 -2.53125 6.046875 -2.53125q3.5625 0 5.625 2.171875q2.078125 2.15625 2.078125 5.953125l0 2.0625l-12.0 0q0.078125 2.625 1.40625 4.03125q1.34375 1.40625 3.765625 1.40625q1.609375 0 2.984375 -0.296875q1.375 -0.296875 2.953125 -1.0l0 3.109375q-1.40625 0.65625 -2.84375 0.9375q-1.421875 0.28125 -3.265625 0.28125zm-0.703125 -15.75q-1.8125 0 -2.921875 1.15625q-1.09375 1.15625 -1.3125 3.359375l8.171875 0q-0.03125 -2.21875 -1.078125 -3.359375q-1.03125 -1.15625 -2.859375 -1.15625zm19.905853 15.75q-4.203125 0 -6.578125 -2.453125q-2.359375 -2.453125 -2.359375 -6.75q0 -4.40625 2.1875 -6.921875q2.203125 -2.53125 6.046875 -2.53125q3.5625 0 5.625 2.171875q2.078125 2.15625 2.078125 5.953125l0 2.0625l-12.0 0q0.078125 2.625 1.40625 4.03125q1.34375 1.40625 3.765625 1.40625q1.609375 0 2.984375 -0.296875q1.375 -0.296875 2.953125 -1.0l0 3.109375q-1.40625 0.65625 -2.84375 0.9375q-1.421875 0.28125 -3.265625 0.28125zm-0.703125 -15.75q-1.8125 0 -2.921875 1.15625q-1.09375 1.15625 -1.3125 3.359375l8.171875 0q-0.03125 -2.21875 -1.078125 -3.359375q-1.03125 -1.15625 -2.859375 -1.15625zm27.874573 15.421875l-3.828125 0l0 -11.0625q0 -2.09375 -0.84375 -3.109375q-0.84375 -1.03125 -2.65625 -1.03125q-2.4375 0 -3.5625 1.4375q-1.109375 1.4375 -1.109375 4.796875l0 8.96875l-3.828125 0l0 -18.0l3.0 0l0.53125 2.359375l0.1875 0q0.828125 -1.28125 2.3125 -1.984375q1.5 -0.703125 3.328125 -0.703125q6.46875 0 6.46875 6.59375l0 11.734375z" fill-rule="nonzero"/></g></svg>